<?xml version="1.0" encoding="utf-8" ?>
<svg xmlns="http://www.w3.org/2000/svg" xmlns:xlink="http://www.w3.org/1999/xlink" width="140" height="140">
	<defs>
		<clipPath id="clip_0">
			<rect x="-890" y="-1765" width="1440" height="5520" clip-rule="evenodd"/>
		</clipPath>
	</defs>
	<g clip-path="url(#clip_0)">
		<path fill="rgb(255,241,80)" stroke="none" d="M70 140C108.66 140 140 108.66 140 70C140 31.3401 108.66 0 70 0C31.3401 0 0 31.3401 0 70C0 108.66 31.3401 140 70 140Z"/>
	</g>
	<defs>
		<clipPath id="clip_1">
			<rect x="-890" y="-1765" width="1440" height="5520" clip-rule="evenodd"/>
		</clipPath>
	</defs>
	<g clip-path="url(#clip_1)">
		<path fill="rgb(0,0,0)" stroke="none" transform="translate(63.3579 63.5004)" d="M40.6432 2.04862L40.6326 2.01129C40.5229 1.55766 40.1866 1.18524 39.7343 1.03526C39.5664 0.979478 35.5563 -0.325092 29.8307 0.0767244C24.5598 0.446412 16.7683 2.39547 9.58154 9.5821C2.39492 16.7689 0.445996 24.5602 0.0765815 29.8308C-0.324825 35.5566 0.979746 39.5663 1.03553 39.7342C1.17143 40.1438 1.49285 40.4651 1.90232 40.601C2.04793 40.6494 5.08144 41.6365 9.61791 41.6365C10.3134 41.6365 11.0446 41.6132 11.8057 41.5599C17.0763 41.1904 24.8677 39.2415 32.0544 32.055C44.7703 19.3388 41.44 4.82825 40.6432 2.04862ZM26.6026 3.25174C27.6834 3.04311 28.7841 2.896 29.9048 2.81274C32.6742 2.60712 35.0201 2.84719 36.6177 3.11926C36.5495 3.16616 36.4841 3.21893 36.4235 3.2795L26.6026 13.1004L26.6026 3.25174ZM23.8682 15.8348L23.8682 3.92686C20.5978 4.91424 17.5334 6.51071 14.6974 8.70627C14.7017 8.74989 14.7041 8.79391 14.7041 8.83862L14.7041 24.9989L23.8682 15.8348ZM22.7217 20.848L36.5667 20.848C39.4368 14.3215 39.0786 8.32483 38.5115 5.02622C38.466 5.09157 38.4153 5.15446 38.3569 5.21284L22.7217 20.848ZM2.80412 30.022C3.29412 23.0321 6.22482 16.8056 11.515 11.5156C11.6658 11.3649 11.8174 11.2166 11.9697 11.0696L11.9697 27.6724C11.9697 27.692 11.9718 27.7109 11.9726 27.7301L3.11133 36.5914C2.84541 35.0231 2.61381 32.7379 2.80412 30.022ZM30.1209 30.1212C29.6356 30.6066 29.142 31.0718 28.641 31.5175L12.0523 31.5175L19.9875 23.5824L35.1801 23.5824C33.9234 25.763 32.2737 27.9684 30.1209 30.1212ZM5.04781 38.5219C6.64482 38.7921 8.97916 39.028 11.7314 38.8238C16.5736 38.4642 21.0472 36.9299 25.0952 34.2518L9.3323 34.2518C9.32766 34.2518 9.32328 34.2511 9.31863 34.2511L5.04781 38.5219Z" fill-rule="evenodd"/>
	</g>
	<defs>
		<clipPath id="clip_2">
			<rect x="-890" y="-1765" width="1440" height="5520" clip-rule="evenodd"/>
		</clipPath>
	</defs>
	<g clip-path="url(#clip_2)">
		<path fill="rgb(0,0,0)" stroke="none" transform="translate(35.0124 63.5001)" d="M11.7992 0.0766361C17.0701 0.446324 24.8615 2.39539 32.0483 9.58201C32.5822 10.116 32.5823 10.9817 32.0483 11.5156C31.5143 12.0495 30.6486 12.0495 30.1147 11.5156C28.6223 10.0233 27.0552 8.71876 25.4176 7.60369L25.4176 23.4908L26.9249 24.9979C27.4588 25.5319 27.4588 26.3976 26.9249 26.9315C26.658 27.1985 26.308 27.3319 25.9582 27.3319C25.6083 27.3319 25.2584 27.1985 24.9914 26.9315L18.3925 20.3326L4.8429 20.3326C6.17659 23.5399 8.27755 26.8899 11.5092 30.1215C15.2167 33.8289 19.4468 36.4012 24.0818 37.7667C24.806 37.98 25.2203 38.7402 25.0069 39.4645C24.8315 40.0598 24.2866 40.4456 23.696 40.4456C23.568 40.4456 23.4379 40.4275 23.309 40.3895C18.2305 38.8936 13.6099 36.0893 9.57556 32.055C-3.14052 19.3389 0.189815 4.82843 0.986612 2.04867L0.997276 2.01134C1.10692 1.55771 1.44325 1.18529 1.89552 1.03517C2.06341 0.979527 6.07378 -0.324907 11.7992 0.0766361ZM13.3867 2.98546C12.7994 2.90767 12.2066 2.84642 11.6079 2.80445C8.88759 2.61345 6.59878 2.84628 5.03007 3.11275C5.0637 3.1405 5.09665 3.1699 5.1281 3.20134L13.3867 11.46L13.3867 2.98546ZM16.121 14.1942L22.6833 20.7566L22.6833 5.95281C20.5952 4.84607 18.4055 4.0222 16.121 3.48476L16.121 14.1942ZM3.87206 17.5985L3.87206 17.5982C2.32482 12.3862 2.64542 7.79044 3.11478 5.04664C3.14007 5.07671 3.16618 5.10652 3.19448 5.13496L15.6579 17.5985L3.87206 17.5985Z" fill-rule="evenodd"/>
	</g>
	<defs>
		<clipPath id="clip_3">
			<rect x="-890" y="-1765" width="1440" height="5520" clip-rule="evenodd"/>
		</clipPath>
	</defs>
	<g clip-path="url(#clip_3)">
		<path fill="rgb(0,0,0)" stroke="none" transform="translate(51.1938 92.6349)" d="M9.62841 3.97072C6.98646 3.19238 4.47822 1.94482 2.17328 0.262906C1.56324 -0.182251 0.708062 -0.0485396 0.262906 0.561363C-0.182251 1.17127 -0.0485396 2.02658 0.561363 2.47173C3.12074 4.33959 5.9113 5.72632 8.85554 6.59367C8.98447 6.63168 9.11462 6.64972 9.24259 6.64972C9.83322 6.64972 10.378 6.2639 10.5535 5.66863C10.7669 4.94416 10.3527 4.184 9.62841 3.97072Z"/>
	</g>
	<defs>
		<clipPath id="clip_4">
			<rect x="-890" y="-1765" width="1440" height="5520" clip-rule="evenodd"/>
		</clipPath>
	</defs>
	<g clip-path="url(#clip_4)">
		<path fill="rgb(0,0,0)" stroke="none" transform="translate(47.7439 89.6696)" d="M2.33512 0.403818L2.33034 0.399033C1.79645 -0.134581 0.933347 -0.132256 0.399187 0.401494C-0.1347 0.93538 -0.132239 1.80354 0.401648 2.33743C0.668659 2.60444 1.01852 2.73788 1.36839 2.73788C1.71825 2.73788 2.06825 2.60444 2.33512 2.33743C2.86901 1.80354 2.86901 0.937841 2.33512 0.403818Z"/>
	</g>
	<defs>
		<clipPath id="clip_5">
			<rect x="-890" y="-1765" width="1440" height="5520" clip-rule="evenodd"/>
		</clipPath>
	</defs>
	<g clip-path="url(#clip_5)">
		<path fill="rgb(0,0,0)" stroke="none" transform="translate(42.3836 35.1366)" d="M10.1371 17.363L2.73424 17.363L2.73424 11.4159L7.83385 11.4159C8.58895 11.4159 9.20104 10.8038 9.20104 10.0487C9.20104 9.29359 8.58895 8.6815 7.83385 8.6815L2.73424 8.6815L2.73424 2.73438L10.137 2.73438C10.8921 2.73438 11.5042 2.12229 11.5042 1.36719C11.5042 0.61209 10.8921 0 10.137 0L1.36719 0C0.61209 0 0 0.61209 0 1.36719L0 18.7301C0 19.4852 0.61209 20.0972 1.36719 20.0972L10.1371 20.0972C10.8922 20.0972 11.5043 19.4852 11.5043 18.7301C11.5043 17.975 10.8922 17.363 10.1371 17.363Z"/>
	</g>
	<defs>
		<clipPath id="clip_6">
			<rect x="-890" y="-1765" width="1440" height="5520" clip-rule="evenodd"/>
		</clipPath>
	</defs>
	<g clip-path="url(#clip_6)">
		<path fill="rgb(0,0,0)" stroke="none" transform="translate(77.451 35.1367)" d="M0 10.0486C0 4.50775 4.50775 0 10.0486 0C15.5894 0 20.0971 4.50775 20.0971 10.0486C20.0971 15.5894 15.5894 20.0971 10.0486 20.0971C4.50775 20.0971 0 15.5894 0 10.0486ZM2.73424 10.0486C2.73424 14.0818 6.01549 17.3629 10.0486 17.3629C14.0816 17.3629 17.3629 14.0818 17.3629 10.0486C17.3629 6.01535 14.0818 2.73424 10.0486 2.73424C6.01535 2.73424 2.73424 6.01535 2.73424 10.0486Z" fill-rule="evenodd"/>
	</g>
	<defs>
		<clipPath id="clip_7">
			<rect x="-890" y="-1765" width="1440" height="5520" clip-rule="evenodd"/>
		</clipPath>
	</defs>
	<g clip-path="url(#clip_7)">
		<path fill="rgb(0,0,0)" stroke="none" transform="translate(56.9083 35.1414)" d="M15.2157 15.2158C12.364 18.0677 7.72348 18.0677 4.8718 15.2158C2.01999 12.3642 2.01999 7.72379 4.8718 4.87197C7.72348 2.02016 12.3639 2.02016 15.2157 4.87197C15.7496 5.40586 16.6153 5.40586 17.1493 4.87197C17.6832 4.33809 17.6832 3.47238 17.1493 2.93836C13.2313 -0.979453 6.85641 -0.979453 2.93846 2.93836C-0.979487 6.85631 -0.979487 13.2314 2.93846 17.1492C4.89737 19.1082 7.47055 20.0877 10.0439 20.0877C12.6172 20.0877 15.1904 19.1081 17.1494 17.1493C17.6833 16.6154 17.6833 15.7497 17.1494 15.2157C16.6154 14.682 15.7497 14.682 15.2157 15.2158Z"/>
	</g>
	<defs>
		<clipPath id="clip_8">
			<rect x="-890" y="-1765" width="1440" height="5520" clip-rule="evenodd"/>
		</clipPath>
	</defs>
	<g clip-path="url(#clip_8)">
		<path fill="rgb(0,0,0)" stroke="none" transform="translate(68.6421 58.4279)" d="M1.36719 0C0.61209 0 0 0.61209 0 1.36719L0 5.23346C0 5.98855 0.61209 6.60064 1.36719 6.60064C2.12229 6.60064 2.73438 5.98855 2.73438 5.23346L2.73438 1.36719C2.73424 0.61209 2.12215 0 1.36719 0Z"/>
	</g>
	<defs>
		<clipPath id="clip_9">
			<rect x="-890" y="-1765" width="1440" height="5520" clip-rule="evenodd"/>
		</clipPath>
	</defs>
	<g clip-path="url(#clip_9)">
		<path fill="rgb(0,0,0)" stroke="none" transform="translate(72.866 61.7938)" d="M5.12177 0.400466C4.58775 -0.133557 3.72218 -0.13342 3.1883 0.400466L0.400466 3.18816C-0.13342 3.72205 -0.133557 4.58775 0.400466 5.12164C0.667478 5.38865 1.01734 5.52209 1.3672 5.52209C1.71707 5.52209 2.06707 5.38851 2.33394 5.12164L5.12164 2.33394C5.65566 1.79992 5.6558 0.934216 5.12177 0.400466Z"/>
	</g>
	<defs>
		<clipPath id="clip_10">
			<rect x="-890" y="-1765" width="1440" height="5520" clip-rule="evenodd"/>
		</clipPath>
	</defs>
	<g clip-path="url(#clip_10)">
		<path fill="rgb(0,0,0)" stroke="none" transform="translate(61.6119 61.7487)" d="M5.12629 3.1929L2.33394 0.400415C1.79992 -0.133608 0.934353 -0.133335 0.400466 0.400415C-0.13342 0.934302 -0.133557 1.8 0.400466 2.33389L3.19281 5.12637C3.45982 5.39338 3.80968 5.52682 4.15955 5.52682C4.50941 5.52682 4.85941 5.39325 5.12629 5.12637C5.66017 4.59248 5.66031 3.72678 5.12629 3.1929Z"/>
	</g>
</svg>
