<?xml version="1.0" encoding="utf-8" ?>
<svg xmlns="http://www.w3.org/2000/svg" xmlns:xlink="http://www.w3.org/1999/xlink" width="140" height="140">
	<defs>
		<clipPath id="clip_0">
			<rect x="-1050" y="-1765" width="1440" height="5520" clip-rule="evenodd"/>
		</clipPath>
	</defs>
	<g clip-path="url(#clip_0)">
		<path fill="rgb(255,241,80)" stroke="none" d="M70 140C108.66 140 140 108.66 140 70C140 31.3401 108.66 0 70 0C31.3401 0 0 31.3401 0 70C0 108.66 31.3401 140 70 140Z"/>
	</g>
	<defs>
		<clipPath id="clip_1">
			<rect x="-1050" y="-1765" width="1440" height="5520" clip-rule="evenodd"/>
		</clipPath>
	</defs>
	<g clip-path="url(#clip_1)">
		<path fill="rgb(0,0,0)" stroke="none" transform="translate(29 35.0587)" d="M60.067 0.000162109C66.3121 0.000162109 72.1581 2.46179 76.5286 6.93147C85.3011 15.9036 85.1335 30.5072 76.1551 39.486L47.5689 68.0696C45.9073 69.7312 43.7241 70.562 41.5415 70.5622C39.3584 70.5622 37.1757 69.7312 35.5136 68.0694L6.74213 39.2981C2.39436 34.9505 0 29.1698 0 23.0208C0 16.8719 2.39436 11.0912 6.74213 6.74359C11.0906 2.39484 16.8717 0 23.0207 0C29.1677 0 34.9479 2.39484 39.2966 6.74359L41.5433 8.99026L43.7878 6.74424C48.1369 2.395 53.9182 0.000162109 60.067 0.000162109ZM44.555 65.056L73.141 36.472C80.4764 29.1367 80.629 17.2217 73.4806 9.91104C69.9187 6.26828 65.155 4.26202 60.0666 4.26202C55.0561 4.26202 50.3453 6.21349 46.8018 9.75704L38.1033 18.4623C37.6872 18.8786 37.1417 19.0871 36.5959 19.0871C36.0507 19.0871 35.5057 18.8793 35.0895 18.4634C34.2571 17.6315 34.2565 16.2823 35.0884 15.4497L38.5305 12.005L36.2827 9.7572C32.7391 6.21365 28.0292 4.26218 23.0207 4.26218C18.0102 4.26218 13.2993 6.21365 9.75591 9.7572C6.21317 13.2999 4.26218 18.0102 4.26218 23.0207C4.26218 28.0311 6.21317 32.7414 9.75591 36.284L38.5276 65.0558C40.1892 66.7176 42.8932 66.7176 44.555 65.056Z" fill-rule="evenodd"/>
	</g>
	<defs>
		<clipPath id="clip_2">
			<rect x="-1050" y="-1765" width="1440" height="5520" clip-rule="evenodd"/>
		</clipPath>
	</defs>
	<g clip-path="url(#clip_2)">
		<path fill="rgb(0,0,0)" stroke="none" transform="translate(90.553 43.0073)" d="M14.0369 14.1049C13.8027 10.3147 12.197 6.75061 9.51555 4.06884C7.61692 2.17021 5.26099 0.790661 2.70274 0.0785142C1.56879 -0.236951 0.393979 0.426563 0.0785142 1.56052C-0.236951 2.69431 0.426563 3.86928 1.56052 4.18474C3.41294 4.70009 5.12157 5.70209 6.50194 7.08245C8.4479 9.02841 9.61314 11.6155 9.78319 14.3673C9.85306 15.4974 10.7912 16.3671 11.9083 16.3671C11.9524 16.3671 11.997 16.3658 12.0417 16.3629C13.2163 16.2907 14.1096 15.2797 14.0369 14.1049Z"/>
	</g>
</svg>
