<?xml version="1.0" encoding="utf-8" ?>
<svg xmlns="http://www.w3.org/2000/svg" xmlns:xlink="http://www.w3.org/1999/xlink" width="140" height="140">
	<defs>
		<clipPath id="clip_0">
			<rect x="-250" y="-1765" width="1440" height="5520" clip-rule="evenodd"/>
		</clipPath>
	</defs>
	<g clip-path="url(#clip_0)">
		<path fill="rgb(255,241,79)" stroke="none" d="M70 140C108.66 140 140 108.66 140 70C140 31.3401 108.66 0 70 0C31.3401 0 0 31.3401 0 70C0 108.66 31.3401 140 70 140Z"/>
	</g>
	<defs>
		<clipPath id="clip_1">
			<rect x="-250" y="-1765" width="1440" height="5520" clip-rule="evenodd"/>
		</clipPath>
	</defs>
	<g clip-path="url(#clip_1)">
		<path fill="rgb(0,0,0)" stroke="none" transform="translate(29 28)" d="M41.5001 0L26.3378 9.6908C24.181 8.23608 22.7582 5.75863 22.7582 2.95006L20.0808 2.95006C20.0808 7.41997 16.4783 11.055 12.0485 11.055L12.0485 13.7567C13.92 13.7567 15.639 14.4106 17.0058 15.4967L0 26.5275L0 43.2279L8.03226 38.0946L8.03226 48.8782C8.03226 52.6023 5.02955 55.6325 1.33857 55.6325L1.33857 58.3341C5.02926 58.3341 8.03226 61.364 8.03226 65.0884L8.03226 84L74.9677 84L74.9677 38.0946L83 43.2279L83 26.5209L41.5001 0ZM65.6206 28.9226L80.3226 38.3188L80.3229 38.3188L80.3229 28.0093L41.5001 3.19876L29.4076 10.9268C29.8574 11.0052 30.3178 11.055 30.7905 11.055L30.7905 13.7567C26.3607 13.7567 22.7582 17.3917 22.7582 21.8616L20.0808 21.8616C20.0808 20.2677 19.6161 18.7833 18.825 17.5283L2.67742 28.0027L2.67742 38.3188L41.4996 13.508L51.7743 20.0744C52.8921 18.2306 53.5481 16.0719 53.5481 13.7567L56.2255 13.7567C56.2255 20.4611 61.6315 25.9143 68.2741 25.9143L68.2741 28.6159C67.361 28.6159 66.476 28.728 65.6206 28.9226ZM21.4194 8.17787C22.3952 9.9516 23.8517 11.4213 25.6096 12.406C23.8517 13.3907 22.3952 14.8592 21.4194 16.6341C20.8824 15.6575 20.189 14.7863 19.3899 14.0244L19.3565 13.9717L19.3417 13.9812C18.702 13.3772 18.0003 12.8383 17.2292 12.406C18.987 11.4213 20.4432 9.95275 21.4194 8.17787ZM40.1613 43.4749L40.1613 81.2981L72.2903 81.2981L72.2903 36.3831L62.4857 30.1168C58.7587 32.1864 56.2258 36.186 56.2258 40.7735L53.5484 40.7735C53.5484 34.0691 48.1424 28.6159 41.4999 28.6159L41.4999 25.9137C44.8827 25.9137 47.9402 24.4939 50.1304 22.2219L41.4999 16.7065L10.7097 36.384L10.7097 48.8779C10.7097 52.6023 13.7127 55.6322 17.4034 55.6322L17.4034 58.3338C13.7124 58.3338 10.7097 61.364 10.7097 65.0881L10.7097 81.2981L18.7419 81.2981L18.7419 43.4749L40.1613 43.4749ZM54.8872 19.945C56.3586 23.1734 58.9435 25.7806 62.1404 27.2652C58.9424 28.7499 56.3586 31.3568 54.8872 34.5855C53.4159 31.3571 50.831 28.7499 47.6341 27.2652C50.831 25.7806 53.4156 23.1734 54.8872 19.945ZM37.4839 81.2983L21.4194 81.2983L21.4194 46.1768L37.4839 46.1768L37.4839 81.2983ZM9.37082 53.7455C8.57974 55.0694 7.47393 56.1852 6.16192 56.9835C7.47393 57.7817 8.57974 58.8975 9.37082 60.2214C10.1619 58.8975 11.2677 57.7817 12.5797 56.9835C11.2677 56.1864 10.1619 55.0694 9.37082 53.7455Z" fill-rule="evenodd"/>
	</g>
	<defs>
		<clipPath id="clip_2">
			<rect x="-250" y="-1765" width="1440" height="5520" clip-rule="evenodd"/>
		</clipPath>
	</defs>
	<g clip-path="url(#clip_2)">
		<path fill="rgb(0,0,0)" stroke="none" transform="translate(75 71)" d="M20 16L0 16L0 0L20 0L20 16ZM17.3334 2.66667L2.66665 2.66667L2.66665 13.3333L17.3334 13.3333L17.3334 2.66667Z" fill-rule="evenodd"/>
	</g>
	<defs>
		<clipPath id="clip_3">
			<rect x="-250" y="-1765" width="1440" height="5520" clip-rule="evenodd"/>
		</clipPath>
	</defs>
	<g clip-path="url(#clip_3)">
		<path fill="rgb(0,0,0)" stroke="none" transform="translate(61 91)" d="M0 0L3 0L3 3L0 3L0 0Z"/>
	</g>
	<defs>
		<clipPath id="clip_4">
			<rect x="-250" y="-1765" width="1440" height="5520" clip-rule="evenodd"/>
		</clipPath>
	</defs>
	<g clip-path="url(#clip_4)">
		<path fill="rgb(0,0,0)" stroke="none" transform="translate(87 77)" d="M0 0L3 0L3 3L0 3L0 0Z"/>
	</g>
	<defs>
		<clipPath id="clip_5">
			<rect x="-250" y="-1765" width="1440" height="5520" clip-rule="evenodd"/>
		</clipPath>
	</defs>
	<g clip-path="url(#clip_5)">
		<path fill="rgb(0,0,0)" stroke="none" transform="translate(97 104)" d="M0 0L3 0L3 3L0 3L0 0Z"/>
	</g>
	<defs>
		<clipPath id="clip_6">
			<rect x="-250" y="-1765" width="1440" height="5520" clip-rule="evenodd"/>
		</clipPath>
	</defs>
	<g clip-path="url(#clip_6)">
		<path fill="rgb(0,0,0)" stroke="none" transform="translate(91 104)" d="M0 0L3 0L3 3L0 3L0 0Z"/>
	</g>
	<defs>
		<clipPath id="clip_7">
			<rect x="-250" y="-1765" width="1440" height="5520" clip-rule="evenodd"/>
		</clipPath>
	</defs>
	<g clip-path="url(#clip_7)">
		<path fill="rgb(0,0,0)" stroke="none" transform="translate(86 104)" d="M0 0L3 0L3 3L0 3L0 0Z"/>
	</g>
</svg>
