<?xml version="1.0" encoding="utf-8" ?>
<svg xmlns="http://www.w3.org/2000/svg" xmlns:xlink="http://www.w3.org/1999/xlink" width="140" height="140">
	<defs>
		<clipPath id="clip_0">
			<rect x="-410" y="-1765" width="1440" height="5520" clip-rule="evenodd"/>
		</clipPath>
	</defs>
	<g clip-path="url(#clip_0)">
		<path fill="rgb(255,241,80)" stroke="none" d="M70 140C108.66 140 140 108.66 140 70C140 31.3401 108.66 0 70 0C31.3401 0 0 31.3401 0 70C0 108.66 31.3401 140 70 140Z"/>
	</g>
	<defs>
		<clipPath id="clip_1">
			<rect x="-410" y="-1765" width="1440" height="5520" clip-rule="evenodd"/>
		</clipPath>
	</defs>
	<g clip-path="url(#clip_1)">
		<path fill="rgb(0,0,0)" stroke="none" transform="translate(46.5351 35.0002)" d="M25.5193 1.75005C25.5193 0.783891 24.7359 0 23.7693 0C12.613 0 2.86199 7.53145 0.0568463 18.3151C-0.186622 19.2506 0.374471 20.2059 1.30979 20.4492C1.45761 20.488 1.6056 20.506 1.75145 20.506C2.52894 20.506 3.239 19.9841 3.44392 19.1963C5.84825 9.95449 14.2063 3.49995 23.7693 3.49995C24.7359 3.50011 25.5193 2.71671 25.5193 1.75005Z"/>
	</g>
	<defs>
		<clipPath id="clip_2">
			<rect x="-410" y="-1765" width="1440" height="5520" clip-rule="evenodd"/>
		</clipPath>
	</defs>
	<g clip-path="url(#clip_2)">
		<path fill="rgb(0,0,0)" stroke="none" transform="translate(45.8044 56.7312)" d="M1.84948 0.0018262C0.888891 -0.0419785 0.0666094 0.707623 0.0241172 1.67329C0.00803906 2.03587 0 2.40485 0 2.76907C0 3.73556 0.783563 4.51912 1.75005 4.51912C2.71655 4.51912 3.50011 3.73556 3.50011 2.76907C3.50011 2.45604 3.50716 2.13907 3.52078 1.82735C3.56327 0.862006 2.81498 0.0446465 1.84948 0.0018262Z"/>
	</g>
	<defs>
		<clipPath id="clip_3">
			<rect x="-410" y="-1765" width="1440" height="5520" clip-rule="evenodd"/>
		</clipPath>
	</defs>
	<g clip-path="url(#clip_3)">
		<path fill="rgb(0,0,0)" stroke="none" transform="translate(68.5545 63.4935)" d="M24.2094 0.0571324C23.2726 -0.187157 22.3182 0.374593 22.0753 1.31008C19.6714 10.5524 11.3134 17.0071 1.75005 17.0071C0.783727 17.0071 0 17.7903 0 18.7571C0 19.7233 0.783727 20.5072 1.75005 20.5072C12.9066 20.5072 22.6577 12.9754 25.4623 2.19142C25.7058 1.25577 25.1447 0.300109 24.2094 0.0571324Z"/>
	</g>
	<defs>
		<clipPath id="clip_4">
			<rect x="-410" y="-1765" width="1440" height="5520" clip-rule="evenodd"/>
		</clipPath>
	</defs>
	<g clip-path="url(#clip_4)">
		<path fill="rgb(0,0,0)" stroke="none" transform="translate(91.282 57.7505)" d="M1.67318 4.5168C1.69943 4.51779 1.72568 4.51861 1.7516 4.51861C2.68266 4.51861 3.4572 3.78476 3.49837 2.8455C3.51445 2.48292 3.52249 2.11395 3.52249 1.75005C3.52249 0.783891 2.73909 0 1.77244 0C0.806109 0 0.0223827 0.783891 0.0223827 1.75005C0.0223827 2.06309 0.015328 2.37973 0.00171079 2.69145C-0.0406173 3.65679 0.707672 4.47398 1.67318 4.5168Z"/>
	</g>
	<defs>
		<clipPath id="clip_5">
			<rect x="-410" y="-1765" width="1440" height="5520" clip-rule="evenodd"/>
		</clipPath>
	</defs>
	<g clip-path="url(#clip_5)">
		<path fill="rgb(0,0,0)" stroke="none" transform="translate(63.6165 48.1129)" d="M13.1568 22.6062C13.3028 22.4943 13.376 22.2695 13.376 21.9324L13.376 19.7764C13.376 19.1927 13.0504 18.9007 12.3989 18.9007L9.90577 18.9007L9.90577 2.32493C9.90577 0.774539 9.15305 0 7.64859 0L7.37887 0L7.37887 0.000164062C6.50278 0.000164062 5.52562 0.224273 4.44757 0.673969L0.505641 2.2575C0.168984 2.41467 0 2.62828 0 2.89767C0 3.1226 0.258563 3.95341 0.775195 5.39077C0.887742 5.70527 1.09003 5.86195 1.3819 5.86195C1.62898 5.86195 1.88705 5.80634 2.15677 5.69379L5.35697 4.48104L5.35697 18.9007L2.15677 18.9007C1.50527 18.9007 1.17961 19.1925 1.17961 19.7764L1.17961 21.8653C1.17961 22.472 1.50527 22.7752 2.15677 22.7752L12.4322 22.7752C12.7693 22.775 13.011 22.7187 13.1568 22.6062Z"/>
	</g>
	<defs>
		<clipPath id="clip_6">
			<rect x="-410" y="-1765" width="1440" height="5520" clip-rule="evenodd"/>
		</clipPath>
	</defs>
	<g clip-path="url(#clip_6)">
		<path fill="rgb(0,0,0)" stroke="none" transform="translate(37.0548 28)" d="M56.3105 52.9331L66.2653 70.1746C66.6192 70.7879 66.569 71.5534 66.1382 72.1148C65.707 72.6764 64.9797 72.9228 64.2969 72.7399L50.6874 69.0936L47.0408 82.7026C46.8576 83.3861 46.2806 83.8924 45.5789 83.9846C45.5021 83.9946 45.4258 83.9997 45.3498 83.9997C44.7307 83.9997 44.1502 83.6706 43.8349 83.1247L33.2396 64.7727L22.6652 83.1234C22.3502 83.6702 21.7693 83.9998 21.1496 83.9998C21.0738 83.9998 20.9979 83.9951 20.9214 83.9847C20.2196 83.8929 19.6421 83.3867 19.4588 82.7028L15.8122 69.0938L2.2027 72.7401C1.51922 72.9223 0.792422 72.6766 0.361594 72.115C-0.0692337 71.5534 -0.119437 70.7879 0.234446 70.1746L10.1891 52.9328C4.95633 47.3064 1.75022 39.7712 1.75022 31.4997C1.75022 14.1309 15.8809 0 33.2501 0C50.619 0 64.7499 14.1309 64.7499 31.4997C64.7499 39.7712 61.5433 47.3068 56.3105 52.9331ZM5.25016 31.4997C5.25016 16.0606 17.811 3.49995 33.2501 3.49995C48.6893 3.49995 61.2498 16.0606 61.2498 31.4997C61.2498 46.9391 48.6893 59.4997 33.2501 59.4997C17.8108 59.4997 5.25016 46.9391 5.25016 31.4997ZM47.7597 66.4975C48.0101 65.5641 48.9689 65.0104 49.9031 65.2603L61.1218 68.2657L53.7105 55.4292C48.8988 59.5489 42.8357 62.2455 36.1779 62.862L44.7536 77.7159L47.7597 66.4975ZM18.7399 66.4977L21.7447 77.7113L30.302 62.8609C23.6519 62.2406 17.5957 59.5455 12.789 55.4295L5.37781 68.2662L16.5967 65.2605C17.5298 65.0098 18.4898 65.5641 18.7399 66.4977Z" fill-rule="evenodd"/>
	</g>
</svg>
