<?xml version="1.0" encoding="utf-8" ?>
<svg xmlns="http://www.w3.org/2000/svg" xmlns:xlink="http://www.w3.org/1999/xlink" width="140" height="140">
	<defs>
		<clipPath id="clip_0">
			<rect x="-730" y="-1765" width="1440" height="5520" clip-rule="evenodd"/>
		</clipPath>
	</defs>
	<g clip-path="url(#clip_0)">
		<path fill="rgb(255,241,80)" stroke="none" d="M70 140C108.66 140 140 108.66 140 70C140 31.3401 108.66 0 70 0C31.3401 0 0 31.3401 0 70C0 108.66 31.3401 140 70 140Z"/>
	</g>
	<defs>
		<clipPath id="clip_1">
			<rect x="-730" y="-1765" width="1440" height="5520" clip-rule="evenodd"/>
		</clipPath>
	</defs>
	<g clip-path="url(#clip_1)">
		<path fill="rgb(0,0,0)" stroke="none" transform="translate(52 53)" d="M34.3505 0.649594C33.4844 -0.216531 32.0845 -0.216531 31.2185 0.649594L0.649543 31.2187C-0.216514 32.0849 -0.216514 33.4848 0.649543 34.351C1.08146 34.7829 1.6485 35 2.21553 35C2.78257 35 3.3496 34.7851 3.78152 34.351L34.3505 3.78182C35.2165 2.9157 35.2165 1.51572 34.3505 0.649594Z"/>
	</g>
	<defs>
		<clipPath id="clip_2">
			<rect x="-730" y="-1765" width="1440" height="5520" clip-rule="evenodd"/>
		</clipPath>
	</defs>
	<g clip-path="url(#clip_2)">
		<path fill="rgb(0,0,0)" stroke="none" transform="translate(50 50)" d="M0 9.00114C0 4.03687 4.03687 0 8.99886 0C13.9631 0 18 4.03687 18 9.00114C18 13.9609 13.9609 18 8.99886 18C4.03687 18 0 13.9631 0 9.00114ZM4.54603 9.00114C4.54603 11.456 6.54401 13.454 8.99886 13.454C11.456 13.454 13.454 11.456 13.454 9.00114C13.454 6.54401 11.456 4.54603 8.99886 4.54603C6.54401 4.54603 4.54603 6.54401 4.54603 9.00114Z" fill-rule="evenodd"/>
	</g>
	<defs>
		<clipPath id="clip_3">
			<rect x="-730" y="-1765" width="1440" height="5520" clip-rule="evenodd"/>
		</clipPath>
	</defs>
	<g clip-path="url(#clip_3)">
		<path fill="rgb(0,0,0)" stroke="none" transform="translate(34 36)" d="M72 34.5011C72 37.2974 70.11 39.4193 68.445 41.2894C67.5 42.3459 66.5257 43.4405 66.2422 44.3194C65.9317 45.2747 66.0758 46.7852 66.2153 48.2463L66.2154 48.2477C66.4493 50.6952 66.7144 53.4683 65.1263 55.6482C63.5243 57.8465 60.7882 58.4489 58.3763 58.9794C56.9543 59.2941 55.4827 59.6178 54.6885 60.1977C53.91 60.7597 53.1585 62.0431 52.4295 63.2862C51.1717 65.4328 49.7475 67.8649 47.1263 68.7145C46.539 68.9033 45.9113 69 45.2588 69C43.3755 69 41.5732 68.22 39.834 67.467C38.4637 66.8714 37.0462 66.26 36 66.26C34.9515 66.26 33.534 66.8736 32.1637 67.467C30.4245 68.22 28.6222 69 26.7368 69C26.0865 69 25.4587 68.9033 24.8738 68.7145C22.2525 67.8626 20.8237 65.4283 19.5682 63.2817C18.8393 62.0386 18.0877 60.7552 17.3138 60.1932C16.5217 59.6178 15.0525 59.2941 13.6305 58.9817C11.214 58.4489 8.47575 57.8443 6.876 55.646C5.28975 53.4701 5.553 50.6964 5.787 48.2508C5.9265 46.7897 6.06825 45.2792 5.7555 44.3217C5.46975 43.4383 4.4955 42.3436 3.55275 41.2849C1.88775 39.417 0 37.2951 0 34.5011C0 31.7049 1.89 29.583 3.55725 27.7106C4.5 26.6541 5.47425 25.5595 5.76 24.6851C6.0705 23.7275 5.9265 22.217 5.787 20.756L5.78687 20.7546C5.5529 18.3071 5.2878 15.534 6.876 13.3563C8.47575 11.1602 11.2118 10.5556 13.6283 10.0206C15.0503 9.7059 16.5217 9.37997 17.316 8.80454C18.0877 8.2426 18.8393 6.96136 19.566 5.71834C20.8283 3.57172 22.2525 1.13737 24.8738 0.285468C25.461 0.0944066 26.0888 0 26.7413 0C28.6267 0 30.4268 0.779978 32.1683 1.53523C33.5363 2.12864 34.9538 2.74229 36 2.74229C37.0462 2.74229 38.4637 2.12864 39.8317 1.53523C41.5732 0.779978 43.3733 0 45.2588 0C45.9113 0 46.539 0.0944066 47.124 0.285468C49.7452 1.13737 51.1717 3.56947 52.4295 5.7161C53.1563 6.95687 53.91 8.24035 54.684 8.80454C55.4805 9.38447 56.952 9.70815 58.3763 10.0228C60.7882 10.5556 63.5243 11.1602 65.124 13.3563C66.712 15.5337 66.4472 18.3042 66.2132 20.7514L66.213 20.7537C66.0735 22.2148 65.9295 23.7253 66.24 24.6828C66.5257 25.5595 67.5 26.6519 68.4427 27.7106C70.11 29.583 72 31.7049 72 34.5011ZM61.9605 42.9303C62.5365 41.1545 63.8302 39.7002 65.0835 38.2976C66.2715 36.9647 67.5 35.5845 67.5 34.5011C67.5 33.4177 66.2692 32.0353 65.0813 30.7024C63.8302 29.2975 62.5365 27.8455 61.9605 26.072C61.3624 24.2301 61.5507 22.249 61.7329 20.333L61.7333 20.3289L61.7342 20.3193C61.8981 18.5893 62.0674 16.8029 61.4857 16.0019C60.8895 15.1815 59.1165 14.7904 57.4065 14.4127C55.5322 13.9969 53.5928 13.5698 52.038 12.4392C50.5035 11.3243 49.509 9.62723 48.5483 7.9886C47.6528 6.46236 46.7257 4.88442 45.7335 4.56299C44.8853 4.27752 43.1955 4.97883 41.6228 5.6599C39.8317 6.43538 37.98 7.23784 36 7.23784C34.02 7.23784 32.1683 6.43538 30.3773 5.6599C28.8045 4.97658 27.1283 4.27527 26.2642 4.56299C25.272 4.88667 24.3428 6.46685 23.4495 7.99309C22.4865 9.63172 21.4942 11.3243 19.962 12.4414C18.4095 13.5698 16.4722 13.9969 14.6003 14.4105C12.8857 14.7881 11.1105 15.1815 10.5142 16.0019C9.92925 16.8044 10.1003 18.5959 10.2668 20.3311L10.2673 20.3368C10.4494 22.2524 10.6374 24.2306 10.0395 26.0742C9.4635 27.8477 8.16975 29.2998 6.91875 30.7046C5.73075 32.0353 4.5 33.4177 4.5 34.5011C4.5 35.5845 5.7285 36.9647 6.91425 38.2954C8.1675 39.7002 9.46125 41.1523 10.035 42.9303C10.6353 44.7676 10.447 46.7509 10.2649 48.6692L10.2645 48.6734L10.2618 48.7026C10.1006 50.4265 9.93478 52.2001 10.5142 52.9981C11.1128 53.8208 12.8857 54.2119 14.598 54.5895C16.47 55.0031 18.4072 55.4279 19.9598 56.5563C21.4942 57.6712 22.4888 59.3683 23.4495 61.0069C24.3428 62.5354 25.272 64.1156 26.262 64.4348C27.1125 64.7067 28.8022 64.0189 30.375 63.3401C32.166 62.5646 34.0177 61.7644 36 61.7644C37.98 61.7644 39.8317 62.5646 41.6228 63.3423C43.1955 64.0234 44.8763 64.709 45.7357 64.437C46.7257 64.1133 47.6528 62.5376 48.546 61.0137C49.509 59.3728 50.5035 57.6757 52.0425 56.5608C53.5905 55.4324 55.53 55.0053 57.4043 54.5918C59.1188 54.2119 60.8895 53.8208 61.4857 53.0003C62.0707 52.2001 61.8997 50.4064 61.7333 48.6711L61.7327 48.6655C61.5506 46.7499 61.3626 44.7717 61.9605 42.9303Z" fill-rule="evenodd"/>
	</g>
	<defs>
		<clipPath id="clip_4">
			<rect x="-730" y="-1765" width="1440" height="5520" clip-rule="evenodd"/>
		</clipPath>
	</defs>
	<g clip-path="url(#clip_4)">
		<path fill="rgb(0,0,0)" stroke="none" transform="translate(72 73)" d="M0 9C0 4.03636 4.03562 0 8.99886 0C13.9621 0 18 4.03636 18 9C18 13.9636 13.9598 18 8.99886 18C4.03562 18 0 13.9636 0 9ZM4.54718 9C4.54718 11.4568 6.54339 13.4545 8.99886 13.4545C11.4543 13.4545 13.4528 11.4568 13.4528 9C13.4528 6.54318 11.4543 4.54545 8.99886 4.54545C6.54339 4.54545 4.54718 6.54318 4.54718 9Z" fill-rule="evenodd"/>
	</g>
</svg>
