<?xml version="1.0" encoding="utf-8" ?>
<svg xmlns="http://www.w3.org/2000/svg" xmlns:xlink="http://www.w3.org/1999/xlink" width="140" height="140">
	<defs>
		<clipPath id="clip_0">
			<rect x="-570" y="-1765" width="1440" height="5520" clip-rule="evenodd"/>
		</clipPath>
	</defs>
	<g clip-path="url(#clip_0)">
		<path fill="rgb(255,241,80)" stroke="none" d="M70 140C108.66 140 140 108.66 140 70C140 31.3401 108.66 0 70 0C31.3401 0 0 31.3401 0 70C0 108.66 31.3401 140 70 140Z"/>
	</g>
	<defs>
		<clipPath id="clip_1">
			<rect x="-570" y="-1765" width="1440" height="5520" clip-rule="evenodd"/>
		</clipPath>
	</defs>
	<g clip-path="url(#clip_1)">
		<path fill="rgb(0,0,0)" stroke="none" transform="translate(54 58)" d="M1.98287 0.235224L18.1627 11.9403C19.2215 12.7104 19.8852 13.8968 19.9865 15.1982C20.0877 16.4996 19.6165 17.7735 18.6952 18.6949C17.8565 19.5349 16.724 20 15.5465 20C15.4315 20 15.3153 19.9963 15.1978 19.9875C13.8965 19.8862 12.7103 19.2224 11.9428 18.166L0.236636 1.98168C-0.122111 1.48537 -0.0683614 0.800289 0.366635 0.365239C0.801632 -0.0685607 1.48788 -0.121067 1.98287 0.235224ZM15.3928 17.4935C15.959 17.5372 16.5228 17.3309 16.9278 16.9271C17.3315 16.5233 17.539 15.9633 17.494 15.3945C17.449 14.8232 17.1578 14.3018 16.694 13.9643L6.82534 6.82473L13.9665 16.6971C14.3015 17.1572 14.8228 17.4497 15.3928 17.4935Z" fill-rule="evenodd"/>
	</g>
	<defs>
		<clipPath id="clip_2">
			<rect x="-570" y="-1765" width="1440" height="5520" clip-rule="evenodd"/>
		</clipPath>
	</defs>
	<g clip-path="url(#clip_2)">
		<path fill="rgb(0,0,0)" stroke="none" transform="translate(35 32)" d="M68.1013 32.9612C68.1001 32.9574 68.1013 32.9523 68.1001 32.9485C68.0988 32.9435 68.095 32.9397 68.0937 32.9346C67.317 30.0479 66.1671 27.3144 64.705 24.7811C64.6923 24.7545 64.6923 24.7266 64.6771 24.7C64.6619 24.6747 64.6377 24.6607 64.6212 24.6367C63.3381 22.439 61.8202 20.3971 60.0954 18.5453L62.8203 15.8257L64.6162 17.6168L70 12.2436L64.6162 6.86913L59.2311 12.2436L61.0257 14.0347L58.3008 16.7542C56.4452 15.0341 54.3993 13.5179 52.1973 12.2373C52.1732 12.2208 52.1592 12.1967 52.1338 12.1815C52.1085 12.1663 52.078 12.1676 52.0526 12.1537C49.5143 10.6932 46.7754 9.54687 43.8842 8.77167C43.8791 8.7704 43.8753 8.7666 43.8703 8.76533L43.8649 8.76478L43.8613 8.76507L43.8576 8.76533C42.2178 8.32707 40.5323 8.00787 38.8075 7.8166L38.8075 6.33333L40.7113 6.33333C42.4615 6.33333 43.8842 4.9134 43.8842 3.16667C43.8842 1.41993 42.4615 0 40.7113 0L29.2887 0C27.5385 0 26.1158 1.41993 26.1158 3.16667C26.1158 4.9134 27.5385 6.33333 29.2887 6.33333L31.1925 6.33333L31.1925 7.8166C29.4677 8.00787 27.7822 8.32707 26.1437 8.76533C26.1386 8.7666 26.1348 8.76533 26.131 8.7666C26.1259 8.76787 26.1221 8.77167 26.1171 8.77293C23.2259 9.54813 20.487 10.6957 17.9487 12.1549C17.922 12.1676 17.8928 12.1676 17.8662 12.1828C17.8408 12.198 17.8268 12.2221 17.8027 12.2385C15.602 13.5191 13.5548 15.0341 11.6992 16.7555L8.97433 14.0347L10.7689 12.2436L5.38383 6.86913L0 12.2436L5.38383 17.6168L7.17972 15.8257L9.90463 18.5453C8.18109 20.3971 6.66189 22.439 5.38003 24.6367C5.36353 24.6607 5.33814 24.6747 5.32418 24.7C5.30895 24.7266 5.31022 24.7545 5.29626 24.7811C3.8329 27.3144 2.6843 30.0479 1.90757 32.9346C1.9063 32.9397 1.90249 32.9435 1.90122 32.9485C1.89995 32.9523 1.90122 32.9574 1.89995 32.9612C1.14226 35.7833 0.732313 38.7435 0.732313 41.8C0.732313 44.8565 1.14226 47.8167 1.89868 50.6388C1.89995 50.6439 1.89868 50.6477 1.89995 50.6515C1.90122 50.6578 1.9063 50.6629 1.90757 50.6692C2.6843 53.5547 3.8329 56.2869 5.29499 58.8189C5.30768 58.8455 5.30768 58.8734 5.32291 58.9C5.34449 58.9367 5.37495 58.9646 5.39906 58.9988C6.87765 61.5233 8.66465 63.8463 10.7182 65.9072C10.7385 65.9313 10.7461 65.9604 10.7689 65.9832C10.7918 66.006 10.821 66.0136 10.8451 66.0339C12.9189 68.0935 15.2593 69.8833 17.8027 71.3627C17.8268 71.3792 17.8408 71.4033 17.8662 71.4185C17.9042 71.44 17.9461 71.4501 17.9855 71.4679C20.5124 72.9169 23.2398 74.0569 26.1171 74.8283C26.1221 74.8296 26.1259 74.8334 26.131 74.8347C26.1374 74.8359 26.1437 74.8359 26.1501 74.8372C28.9752 75.5921 31.94 76 35 76C38.06 76 41.0248 75.5921 43.8499 74.8372C43.8563 74.8359 43.8626 74.8372 43.869 74.8347C43.8741 74.8334 43.8779 74.8296 43.8829 74.8283C46.7602 74.0569 49.4863 72.9169 52.0145 71.4679C52.0539 71.4501 52.0958 71.4413 52.1338 71.4185C52.1592 71.4033 52.1732 71.3792 52.1973 71.3627C54.7407 69.8833 57.0798 68.0935 59.1549 66.0339C59.179 66.0136 59.2082 66.006 59.2311 65.9832C59.2539 65.9604 59.2615 65.93 59.2818 65.9072C61.3354 63.8463 63.1223 61.5233 64.6009 58.9988C64.625 58.9646 64.6555 58.938 64.6771 58.9C64.6923 58.8734 64.691 58.8455 64.705 58.8189C66.1671 56.2869 67.3157 53.5547 68.0924 50.6692C68.0937 50.6629 68.0988 50.6578 68.1001 50.6515C68.1013 50.6477 68.1001 50.6426 68.1013 50.6388C68.8577 47.8167 69.2677 44.8565 69.2677 41.8C69.2677 38.7435 68.8577 35.7833 68.1013 32.9612ZM33.7308 3.8L33.7308 7.62787C34.175 7.60887 34.5926 7.6 35 7.6C35.4074 7.6 35.825 7.60887 36.2692 7.62787L36.2692 3.8L40.7113 3.8C41.0603 3.8 41.3459 3.515 41.3459 3.16667C41.3459 2.81833 41.0603 2.53333 40.7113 2.53333L29.2887 2.53333C28.9397 2.53333 28.6541 2.81833 28.6541 3.16667C28.6541 3.515 28.9397 3.8 29.2887 3.8L33.7308 3.8ZM62.8672 50.5641L65.2977 51.2139C64.7202 53.0607 63.9714 54.8327 63.0805 56.5187L60.914 55.2697C60.3073 54.9189 59.5306 55.1253 59.1803 55.7333C58.83 56.3401 59.0381 57.114 59.6448 57.4636L61.8062 58.7087C60.7744 60.3326 59.6029 61.8577 58.3008 63.2637L56.5379 61.5043C56.0416 61.009 55.2395 61.009 54.7433 61.5043C54.247 61.9995 54.247 62.8001 54.7433 63.2953L56.5061 65.0547C55.0974 66.3543 53.5693 67.5235 51.9422 68.5533L50.6946 66.3961C50.343 65.7881 49.565 65.5804 48.9609 65.9325C48.353 66.2821 48.1448 67.0573 48.4964 67.6628L49.7478 69.825C48.0585 70.7142 46.2842 71.4615 44.4325 72.0379L43.7814 69.6135C43.5999 68.9371 42.9044 68.5343 42.2267 68.7179C41.5502 68.8991 41.1479 69.5932 41.3294 70.2696L41.9779 72.6864C40.13 73.1019 38.2224 73.3577 36.2692 73.435L36.2692 70.9333C36.2692 70.2329 35.7019 69.6667 35 69.6667C34.2981 69.6667 33.7308 70.2329 33.7308 70.9333L33.7308 73.435C31.7776 73.3577 29.87 73.1019 28.0221 72.6864L28.6706 70.2696C28.8521 69.5945 28.4498 68.8991 27.7733 68.7179C27.0969 68.5355 26.4001 68.9371 26.2186 69.6135L25.5675 72.0379C23.717 71.4615 21.9415 70.7142 20.2522 69.825L21.5036 67.6628C21.8539 67.0561 21.6458 66.2821 21.0391 65.9325C20.4324 65.5817 19.6557 65.7881 19.3054 66.3961L18.0578 68.5533C16.4307 67.5235 14.9026 66.3543 13.4939 65.0547L15.2567 63.2953C15.753 62.8001 15.753 61.9995 15.2567 61.5043C14.7605 61.009 13.9584 61.009 13.4621 61.5043L11.6992 63.2637C10.3971 61.8577 9.22562 60.3326 8.19378 58.7087L10.3552 57.4636C10.9631 57.114 11.1713 56.3388 10.8197 55.7333C10.4681 55.1253 9.69014 54.9176 9.08601 55.2697L6.91953 56.5187C6.02857 54.8327 5.27976 53.0619 4.70229 51.2139L7.13276 50.5641C7.80922 50.3829 8.21155 49.6888 8.03006 49.0124C7.84984 48.336 7.15433 47.9332 6.47532 48.1169L4.05247 48.7641C3.63745 46.9199 3.37981 45.0161 3.30239 43.0667L5.80901 43.0667C6.51086 43.0667 7.07818 42.5005 7.07818 41.8C7.07818 41.0995 6.51086 40.5333 5.80901 40.5333L3.30239 40.5333C3.37981 38.5839 3.63618 36.6801 4.05247 34.8359L6.47532 35.4844C6.58574 35.5135 6.69616 35.5275 6.80531 35.5275C7.36501 35.5275 7.87776 35.1551 8.03006 34.5889C8.21282 33.9137 7.80922 33.2183 7.13276 33.0372L4.70229 32.3861C5.27976 30.5393 6.02857 28.7673 6.91953 27.0813L9.08601 28.3303C9.284 28.4455 9.5023 28.5 9.71806 28.5C10.1572 28.5 10.5836 28.2733 10.8184 27.8667C11.1687 27.2599 10.9606 26.486 10.3539 26.1364L8.19251 24.8913C9.22435 23.2674 10.3958 21.7423 11.698 20.3363L13.4609 22.0957C13.7083 22.3427 14.0333 22.4669 14.3582 22.4669C14.6831 22.4669 15.008 22.3427 15.2555 22.0957C15.7517 21.6005 15.7517 20.7999 15.2555 20.3047L13.4926 18.5453C14.9014 17.2469 16.4295 16.0765 18.0565 15.0467L19.3041 17.2051C19.5402 17.6105 19.9654 17.8385 20.4045 17.8385C20.6203 17.8385 20.8386 17.784 21.0378 17.6687C21.6458 17.3191 21.8539 16.5439 21.5023 15.9385L20.2509 13.775C21.9402 12.8858 23.7145 12.1385 25.5662 11.5621L26.2173 13.9878C26.3683 14.5527 26.8811 14.9264 27.4421 14.9264C27.5512 14.9264 27.6616 14.9125 27.7721 14.8833C28.4485 14.7022 28.8509 14.0081 28.6694 13.3317L28.0208 10.9136C29.5083 10.5792 31.0326 10.3499 32.5898 10.2334C32.9833 10.2043 33.3386 10.1827 33.6826 10.1663C33.6991 10.1663 33.7143 10.1663 33.7308 10.165L33.7308 12.6667C33.7308 13.3671 34.2981 13.9333 35 13.9333C35.7019 13.9333 36.2692 13.3671 36.2692 12.6667L36.2692 10.165C36.2857 10.165 36.3009 10.165 36.3174 10.1663C36.6613 10.1827 37.0154 10.2043 37.4102 10.2334C38.9674 10.3512 40.493 10.5792 41.9792 10.9136L41.3306 13.3317C41.1491 14.0068 41.5515 14.7022 42.2279 14.8833C42.3384 14.9125 42.4488 14.9264 42.5579 14.9264C43.1176 14.9264 43.6316 14.5527 43.7827 13.9878L44.4338 11.5621C46.2842 12.1385 48.0598 12.8858 49.7491 13.775L48.4977 15.9385C48.1474 16.5452 48.3555 17.3191 48.9622 17.6687C49.1614 17.784 49.3797 17.8385 49.5955 17.8385C50.0346 17.8385 50.4611 17.6105 50.6959 17.2051L51.9435 15.0467C53.5705 16.0765 55.0986 17.2469 56.5074 18.5453L54.7445 20.3047C54.2483 20.7999 54.2483 21.6005 54.7445 22.0957C54.992 22.3427 55.3169 22.4669 55.6418 22.4669C55.9667 22.4669 56.2917 22.3427 56.5391 22.0957L58.302 20.3363C59.6042 21.7423 60.7756 23.2674 61.8075 24.8913L59.6461 26.1364C59.0381 26.486 58.83 27.2599 59.1816 27.8667C59.4176 28.2733 59.8428 28.5 60.2819 28.5C60.4977 28.5 60.716 28.4455 60.9153 28.3303L63.0817 27.0813C63.9727 28.7673 64.7215 30.5381 65.299 32.3861L62.8685 33.0372C62.192 33.2183 61.7884 33.9125 61.9712 34.5889C62.1235 35.1551 62.635 35.5275 63.196 35.5275C63.3051 35.5275 63.4155 35.5135 63.5259 35.4844L65.9488 34.8359C66.3651 36.6801 66.6215 38.5839 66.6989 40.5333L64.191 40.5333C63.4891 40.5333 62.9218 41.0995 62.9218 41.8C62.9218 42.5005 63.4891 43.0667 64.191 43.0667L66.6976 43.0667C66.6202 45.0161 66.3638 46.9199 65.9475 48.7654L63.5247 48.1181C62.8507 47.9357 62.1514 48.3385 61.9699 49.0137C61.7884 49.6888 62.1908 50.3829 62.8672 50.5641ZM5.38383 10.4513L3.58922 12.2436L5.38383 14.0347L7.17972 12.2436L5.38383 10.4513ZM64.6162 10.4513L66.4108 12.2436L64.6162 14.0347L62.8203 12.2436L64.6162 10.4513Z" fill-rule="evenodd"/>
	</g>
</svg>
